<mxfile host="65bd71144e">
    <diagram id="WaEPQR0DlUg8NhT-LQlC" name="PÃ¡gina-1">
        <mxGraphModel dx="1035" dy="1746" grid="1" gridSize="10" guides="1" tooltips="1" connect="1" arrows="1" fold="1" page="1" pageScale="1" pageWidth="827" pageHeight="1169" math="0" shadow="0">
            <root>
                <mxCell id="0"/>
                <mxCell id="1" parent="0"/>
                <mxCell id="2" style="edgeStyle=none;html=1;exitX=0.5;exitY=0;exitDx=0;exitDy=0;entryX=1;entryY=1;entryDx=0;entryDy=0;fontSize=10;endArrow=none;endFill=0;strokeColor=#FFFFFF;" parent="1" source="9" edge="1">
                    <mxGeometry relative="1" as="geometry">
                        <mxPoint x="48.849242404917504" y="-996.1507575950825" as="targetPoint"/>
                    </mxGeometry>
                </mxCell>
                <mxCell id="3" style="edgeStyle=none;html=1;exitX=0.5;exitY=0;exitDx=0;exitDy=0;entryX=1;entryY=1;entryDx=0;entryDy=0;fontSize=10;endArrow=none;endFill=0;strokeColor=#FFFFFF;" parent="1" source="9" target="18" edge="1">
                    <mxGeometry relative="1" as="geometry"/>
                </mxCell>
                <mxCell id="4" style="edgeStyle=none;html=1;exitX=0.5;exitY=0;exitDx=0;exitDy=0;fontSize=10;entryX=0.667;entryY=0.96;entryDx=0;entryDy=0;endArrow=none;endFill=0;entryPerimeter=0;strokeColor=#FFFFFF;" parent="1" source="9" target="19" edge="1">
                    <mxGeometry relative="1" as="geometry">
                        <mxPoint x="117" y="-990" as="targetPoint"/>
                    </mxGeometry>
                </mxCell>
                <mxCell id="5" style="edgeStyle=none;html=1;exitX=0.5;exitY=0;exitDx=0;exitDy=0;fontSize=10;endArrow=none;endFill=0;entryX=0.5;entryY=1;entryDx=0;entryDy=0;strokeColor=#FFFFFF;" parent="1" source="9" target="20" edge="1">
                    <mxGeometry relative="1" as="geometry">
                        <mxPoint x="108" y="-1089" as="targetPoint"/>
                    </mxGeometry>
                </mxCell>
                <mxCell id="6" style="edgeStyle=none;html=1;exitX=0.5;exitY=0;exitDx=0;exitDy=0;entryX=0;entryY=1;entryDx=0;entryDy=0;fontSize=10;endArrow=none;endFill=0;strokeColor=#FFFFFF;" parent="1" source="9" target="48" edge="1">
                    <mxGeometry relative="1" as="geometry"/>
                </mxCell>
                <mxCell id="7" style="html=1;exitX=0.5;exitY=0;exitDx=0;exitDy=0;entryX=0;entryY=1;entryDx=0;entryDy=0;fontSize=10;endArrow=none;endFill=0;strokeColor=#FFFFFF;" parent="1" source="9" target="49" edge="1">
                    <mxGeometry relative="1" as="geometry"/>
                </mxCell>
                <mxCell id="8" style="edgeStyle=none;html=1;exitX=1;exitY=0.5;exitDx=0;exitDy=0;entryX=0;entryY=0.5;entryDx=0;entryDy=0;fontSize=10;endArrow=none;endFill=0;strokeColor=#FFFFFF;" parent="1" source="9" target="17" edge="1">
                    <mxGeometry relative="1" as="geometry"/>
                </mxCell>
                <mxCell id="9" value="Socios" style="rounded=0;whiteSpace=wrap;html=1;fillColor=#1ba1e2;strokeColor=#FFFFFF;fontColor=#ffffff;" parent="1" vertex="1">
                    <mxGeometry x="35" y="-963" width="120" height="61" as="geometry"/>
                </mxCell>
                <mxCell id="10" style="edgeStyle=none;html=1;exitX=0.5;exitY=0;exitDx=0;exitDy=0;entryX=1;entryY=1;entryDx=0;entryDy=0;fontSize=10;endArrow=none;endFill=0;strokeColor=#FFFFFF;" parent="1" source="15" target="37" edge="1">
                    <mxGeometry relative="1" as="geometry"/>
                </mxCell>
                <mxCell id="11" style="edgeStyle=none;html=1;exitX=0.5;exitY=0;exitDx=0;exitDy=0;fontSize=10;endArrow=none;endFill=0;strokeColor=#FFFFFF;" parent="1" source="15" target="38" edge="1">
                    <mxGeometry relative="1" as="geometry"/>
                </mxCell>
                <mxCell id="12" style="edgeStyle=none;html=1;exitX=0.5;exitY=0;exitDx=0;exitDy=0;entryX=0;entryY=1;entryDx=0;entryDy=0;fontSize=10;endArrow=none;endFill=0;strokeColor=#FFFFFF;" parent="1" source="15" target="39" edge="1">
                    <mxGeometry relative="1" as="geometry"/>
                </mxCell>
                <mxCell id="13" style="edgeStyle=none;html=1;exitX=0.5;exitY=0;exitDx=0;exitDy=0;entryX=0;entryY=1;entryDx=0;entryDy=0;fontSize=10;endArrow=none;endFill=0;strokeColor=#FFFFFF;" parent="1" source="15" target="50" edge="1">
                    <mxGeometry relative="1" as="geometry"/>
                </mxCell>
                <mxCell id="14" style="edgeStyle=none;html=1;exitX=0.5;exitY=1;exitDx=0;exitDy=0;entryX=0.5;entryY=0;entryDx=0;entryDy=0;fontSize=10;endArrow=none;endFill=0;strokeColor=#FFFFFF;" parent="1" source="15" target="29" edge="1">
                    <mxGeometry relative="1" as="geometry"/>
                </mxCell>
                <mxCell id="67" style="edgeStyle=none;html=1;exitX=0.5;exitY=0;exitDx=0;exitDy=0;entryX=0.079;entryY=0.683;entryDx=0;entryDy=0;entryPerimeter=0;endArrow=none;endFill=0;strokeColor=#FFFFFF;" parent="1" source="15" target="66" edge="1">
                    <mxGeometry relative="1" as="geometry"/>
                </mxCell>
                <mxCell id="15" value="Libros" style="rounded=0;whiteSpace=wrap;html=1;fillColor=#1ba1e2;fontColor=#ffffff;strokeColor=#FFFFFF;" parent="1" vertex="1">
                    <mxGeometry x="591" y="-963" width="120" height="61" as="geometry"/>
                </mxCell>
                <mxCell id="16" style="edgeStyle=none;html=1;exitX=1;exitY=0.5;exitDx=0;exitDy=0;entryX=0;entryY=0.5;entryDx=0;entryDy=0;fontSize=10;endArrow=none;endFill=0;strokeColor=#FFFFFF;" parent="1" source="17" target="57" edge="1">
                    <mxGeometry relative="1" as="geometry"/>
                </mxCell>
                <mxCell id="17" value="Realizan" style="rhombus;whiteSpace=wrap;html=1;fontSize=10;strokeColor=#FFFFFF;" parent="1" vertex="1">
                    <mxGeometry x="207" y="-963.5" width="63" height="63.5" as="geometry"/>
                </mxCell>
                <mxCell id="18" value="Nombre" style="ellipse;whiteSpace=wrap;html=1;aspect=fixed;fontSize=10;strokeColor=#FFFFFF;" parent="1" vertex="1">
                    <mxGeometry x="18" y="-1089" width="42" height="42" as="geometry"/>
                </mxCell>
                <mxCell id="19" value="Apellido" style="ellipse;whiteSpace=wrap;html=1;aspect=fixed;fontSize=10;strokeColor=#FFFFFF;" parent="1" vertex="1">
                    <mxGeometry x="42" y="-1131" width="42" height="42" as="geometry"/>
                </mxCell>
                <mxCell id="20" value="Telefono" style="ellipse;whiteSpace=wrap;html=1;aspect=fixed;fontSize=10;strokeColor=#FFFFFF;" parent="1" vertex="1">
                    <mxGeometry x="93" y="-1134" width="42" height="42" as="geometry"/>
                </mxCell>
                <mxCell id="21" style="edgeStyle=none;html=1;exitX=0.5;exitY=1;exitDx=0;exitDy=0;entryX=1;entryY=0;entryDx=0;entryDy=0;fontSize=10;startArrow=none;startFill=0;endArrow=none;endFill=0;strokeColor=#FFFFFF;" parent="1" source="27" target="40" edge="1">
                    <mxGeometry relative="1" as="geometry"/>
                </mxCell>
                <mxCell id="22" style="html=1;entryX=1;entryY=0;entryDx=0;entryDy=0;fontSize=10;startArrow=none;startFill=0;endArrow=none;endFill=0;strokeColor=#FFFFFF;" parent="1" target="41" edge="1">
                    <mxGeometry relative="1" as="geometry">
                        <mxPoint x="659" y="-720" as="sourcePoint"/>
                    </mxGeometry>
                </mxCell>
                <mxCell id="23" style="html=1;entryX=0.5;entryY=0;entryDx=0;entryDy=0;fontSize=10;startArrow=none;startFill=0;endArrow=none;endFill=0;strokeColor=#FFFFFF;" parent="1" target="42" edge="1">
                    <mxGeometry relative="1" as="geometry">
                        <mxPoint x="659" y="-720" as="sourcePoint"/>
                    </mxGeometry>
                </mxCell>
                <mxCell id="24" style="html=1;exitX=0.5;exitY=1;exitDx=0;exitDy=0;entryX=0.5;entryY=0;entryDx=0;entryDy=0;fontSize=10;startArrow=none;startFill=0;endArrow=none;endFill=0;strokeColor=#FFFFFF;" parent="1" source="27" target="43" edge="1">
                    <mxGeometry relative="1" as="geometry"/>
                </mxCell>
                <mxCell id="25" style="html=1;exitX=0.5;exitY=1;exitDx=0;exitDy=0;entryX=0.109;entryY=0.33;entryDx=0;entryDy=0;entryPerimeter=0;fontSize=10;startArrow=none;startFill=0;endArrow=none;endFill=0;strokeColor=#FFFFFF;" parent="1" source="27" target="44" edge="1">
                    <mxGeometry relative="1" as="geometry"/>
                </mxCell>
                <mxCell id="27" value="Autor" style="rounded=0;whiteSpace=wrap;html=1;fillColor=#1ba1e2;fontColor=#ffffff;strokeColor=#FFFFFF;" parent="1" vertex="1">
                    <mxGeometry x="599" y="-782" width="120" height="60" as="geometry"/>
                </mxCell>
                <mxCell id="28" style="edgeStyle=none;html=1;exitX=0.5;exitY=1;exitDx=0;exitDy=0;entryX=0.433;entryY=-0.017;entryDx=0;entryDy=0;entryPerimeter=0;fontSize=10;endArrow=none;endFill=0;strokeColor=#FFFFFF;" parent="1" source="29" target="27" edge="1">
                    <mxGeometry relative="1" as="geometry"/>
                </mxCell>
                <mxCell id="29" value="&lt;font style=&quot;font-size: 10px&quot;&gt;Escritos por&lt;/font&gt;" style="rhombus;whiteSpace=wrap;html=1;strokeColor=#FFFFFF;" parent="1" vertex="1">
                    <mxGeometry x="617" y="-873" width="67" height="63" as="geometry"/>
                </mxCell>
                <mxCell id="30" style="html=1;exitX=0.5;exitY=1;exitDx=0;exitDy=0;entryX=0.5;entryY=0;entryDx=0;entryDy=0;fontSize=10;exitPerimeter=0;strokeColor=#FFFFFF;" parent="1" source="33" target="46" edge="1">
                    <mxGeometry relative="1" as="geometry"/>
                </mxCell>
                <mxCell id="31" style="html=1;exitX=0.5;exitY=1;exitDx=0;exitDy=0;entryX=0.5;entryY=0;entryDx=0;entryDy=0;fontSize=10;endArrow=none;endFill=0;strokeColor=#FFFFFF;" parent="1" source="33" target="46" edge="1">
                    <mxGeometry relative="1" as="geometry"/>
                </mxCell>
                <mxCell id="32" style="edgeStyle=none;html=1;exitX=0.5;exitY=1;exitDx=0;exitDy=0;entryX=0.712;entryY=0.03;entryDx=0;entryDy=0;entryPerimeter=0;fontSize=10;endArrow=none;endFill=0;strokeColor=#FFFFFF;" parent="1" source="33" target="47" edge="1">
                    <mxGeometry relative="1" as="geometry"/>
                </mxCell>
                <mxCell id="33" value="Comunas" style="whiteSpace=wrap;html=1;rounded=0;fillColor=#1ba1e2;fontColor=#ffffff;strokeColor=#FFFFFF;" parent="1" vertex="1">
                    <mxGeometry x="34" y="-782" width="120" height="60" as="geometry"/>
                </mxCell>
                <mxCell id="34" style="edgeStyle=none;html=1;exitX=0.5;exitY=0;exitDx=0;exitDy=0;entryX=0.425;entryY=1.033;entryDx=0;entryDy=0;entryPerimeter=0;fontSize=10;startArrow=none;startFill=0;endArrow=none;endFill=0;strokeColor=#FFFFFF;" parent="1" source="36" edge="1">
                    <mxGeometry relative="1" as="geometry">
                        <mxPoint x="94" y="-899.987" as="targetPoint"/>
                    </mxGeometry>
                </mxCell>
                <mxCell id="35" style="edgeStyle=none;html=1;exitX=0.5;exitY=1;exitDx=0;exitDy=0;entryX=0.5;entryY=0;entryDx=0;entryDy=0;fontSize=10;endArrow=none;endFill=0;strokeColor=#FFFFFF;" parent="1" source="36" target="33" edge="1">
                    <mxGeometry relative="1" as="geometry"/>
                </mxCell>
                <mxCell id="36" value="&lt;font size=&quot;1&quot;&gt;Viven en&lt;/font&gt;" style="rhombus;whiteSpace=wrap;html=1;strokeColor=#FFFFFF;" parent="1" vertex="1">
                    <mxGeometry x="63" y="-872" width="62" height="62" as="geometry"/>
                </mxCell>
                <mxCell id="37" value="ISBN" style="ellipse;whiteSpace=wrap;html=1;aspect=fixed;fontSize=10;fillColor=#647687;fontColor=#ffffff;strokeColor=#FFFFFF;" parent="1" vertex="1">
                    <mxGeometry x="570" y="-1032" width="42" height="42" as="geometry"/>
                </mxCell>
                <mxCell id="38" value="TiÃ­tulo" style="ellipse;whiteSpace=wrap;html=1;aspect=fixed;fontSize=10;strokeColor=#FFFFFF;" parent="1" vertex="1">
                    <mxGeometry x="594" y="-1080" width="42" height="42" as="geometry"/>
                </mxCell>
                <mxCell id="39" value="PÃ¡ginas" style="ellipse;whiteSpace=wrap;html=1;aspect=fixed;fontSize=10;strokeColor=#FFFFFF;" parent="1" vertex="1">
                    <mxGeometry x="638" y="-1116" width="42" height="42" as="geometry"/>
                </mxCell>
                <mxCell id="40" value="CÃ³d. Autor" style="ellipse;whiteSpace=wrap;html=1;aspect=fixed;fontSize=10;fillColor=#a0522d;fontColor=#ffffff;strokeColor=#FFFFFF;" parent="1" vertex="1">
                    <mxGeometry x="545" y="-684" width="45" height="45" as="geometry"/>
                </mxCell>
                <mxCell id="41" value="Nombre Autor" style="ellipse;whiteSpace=wrap;html=1;aspect=fixed;fontSize=10;strokeColor=#FFFFFF;" parent="1" vertex="1">
                    <mxGeometry x="569" y="-626" width="41" height="41" as="geometry"/>
                </mxCell>
                <mxCell id="42" value="Apellido Autor" style="ellipse;whiteSpace=wrap;html=1;aspect=fixed;fontSize=10;strokeColor=#FFFFFF;" parent="1" vertex="1">
                    <mxGeometry x="636" y="-625" width="45" height="45" as="geometry"/>
                </mxCell>
                <mxCell id="43" value="Fecha Nac." style="ellipse;whiteSpace=wrap;html=1;aspect=fixed;fontSize=10;strokeColor=#FFFFFF;" parent="1" vertex="1">
                    <mxGeometry x="700" y="-628.5" width="48.5" height="48.5" as="geometry"/>
                </mxCell>
                <mxCell id="44" value="Fecha Def." style="ellipse;whiteSpace=wrap;html=1;aspect=fixed;fontSize=10;strokeColor=#FFFFFF;" parent="1" vertex="1">
                    <mxGeometry x="722" y="-694" width="46" height="46" as="geometry"/>
                </mxCell>
                <mxCell id="46" value="&lt;font style=&quot;font-size: 10px&quot;&gt;Nombre Comuna&lt;/font&gt;" style="ellipse;whiteSpace=wrap;html=1;aspect=fixed;strokeColor=#FFFFFF;" parent="1" vertex="1">
                    <mxGeometry x="125" y="-700" width="44" height="44" as="geometry"/>
                </mxCell>
                <mxCell id="47" value="&lt;font style=&quot;font-size: 10px&quot;&gt;id&lt;/font&gt;" style="ellipse;whiteSpace=wrap;html=1;aspect=fixed;fillColor=#6d8764;fontColor=#ffffff;strokeColor=#FFFFFF;" parent="1" vertex="1">
                    <mxGeometry x="13" y="-700" width="44" height="44" as="geometry"/>
                </mxCell>
                <mxCell id="48" value="DirecciÃ³n" style="ellipse;whiteSpace=wrap;html=1;aspect=fixed;fontSize=10;strokeColor=#FFFFFF;" parent="1" vertex="1">
                    <mxGeometry x="120" y="-1089" width="42" height="42" as="geometry"/>
                </mxCell>
                <mxCell id="49" value="Comuna" style="ellipse;whiteSpace=wrap;html=1;aspect=fixed;fontSize=10;fillColor=#6d8764;fontColor=#ffffff;strokeColor=#FFFFFF;" parent="1" vertex="1">
                    <mxGeometry x="140" y="-1032" width="42" height="42" as="geometry"/>
                </mxCell>
                <mxCell id="50" value="autor" style="ellipse;whiteSpace=wrap;html=1;aspect=fixed;fontSize=10;fillColor=#a0522d;fontColor=#ffffff;strokeColor=#FFFFFF;" parent="1" vertex="1">
                    <mxGeometry x="680" y="-1080" width="42" height="42" as="geometry"/>
                </mxCell>
                <mxCell id="51" style="edgeStyle=none;html=1;exitX=0.5;exitY=0;exitDx=0;exitDy=0;entryX=1;entryY=1;entryDx=0;entryDy=0;fontSize=10;endArrow=none;endFill=0;strokeColor=#FFFFFF;" parent="1" source="57" target="62" edge="1">
                    <mxGeometry relative="1" as="geometry"/>
                </mxCell>
                <mxCell id="52" style="edgeStyle=none;html=1;exitX=0.5;exitY=0;exitDx=0;exitDy=0;entryX=1;entryY=1;entryDx=0;entryDy=0;fontSize=10;endArrow=none;endFill=0;strokeColor=#FFFFFF;" parent="1" source="57" target="58" edge="1">
                    <mxGeometry relative="1" as="geometry"/>
                </mxCell>
                <mxCell id="53" style="edgeStyle=none;html=1;exitX=0.5;exitY=0;exitDx=0;exitDy=0;fontSize=10;endArrow=none;endFill=0;strokeColor=#FFFFFF;" parent="1" source="57" edge="1">
                    <mxGeometry relative="1" as="geometry">
                        <mxPoint x="378" y="-1071" as="targetPoint"/>
                    </mxGeometry>
                </mxCell>
                <mxCell id="54" style="edgeStyle=none;html=1;exitX=0.5;exitY=0;exitDx=0;exitDy=0;fontSize=10;entryX=0;entryY=1;entryDx=0;entryDy=0;endArrow=none;endFill=0;strokeColor=#FFFFFF;" parent="1" source="57" target="60" edge="1">
                    <mxGeometry relative="1" as="geometry">
                        <mxPoint x="414" y="-1035" as="targetPoint"/>
                    </mxGeometry>
                </mxCell>
                <mxCell id="55" style="edgeStyle=none;html=1;exitX=0.5;exitY=0;exitDx=0;exitDy=0;entryX=0;entryY=1;entryDx=0;entryDy=0;fontSize=10;endArrow=none;endFill=0;strokeColor=#FFFFFF;" parent="1" source="57" target="61" edge="1">
                    <mxGeometry relative="1" as="geometry"/>
                </mxCell>
                <mxCell id="56" style="edgeStyle=none;html=1;entryX=0;entryY=0.5;entryDx=0;entryDy=0;fontSize=10;endArrow=none;endFill=0;strokeColor=#FFFFFF;" parent="1" source="57" target="64" edge="1">
                    <mxGeometry relative="1" as="geometry"/>
                </mxCell>
                <mxCell id="57" value="PrÃ©stamos" style="rounded=0;whiteSpace=wrap;html=1;fillColor=#1ba1e2;strokeColor=#FFFFFF;fontColor=#ffffff;" parent="1" vertex="1">
                    <mxGeometry x="330" y="-962" width="120" height="60" as="geometry"/>
                </mxCell>
                <mxCell id="58" value="Rut" style="ellipse;whiteSpace=wrap;html=1;aspect=fixed;fontSize=10;fillColor=#76608a;fontColor=#ffffff;strokeColor=#FFFFFF;" parent="1" vertex="1">
                    <mxGeometry x="306" y="-1080" width="42" height="42" as="geometry"/>
                </mxCell>
                <mxCell id="59" value="ISBN" style="ellipse;whiteSpace=wrap;html=1;aspect=fixed;fontSize=10;fillColor=#647687;fontColor=#ffffff;strokeColor=#FFFFFF;" parent="1" vertex="1">
                    <mxGeometry x="357" y="-1116" width="42" height="42" as="geometry"/>
                </mxCell>
                <mxCell id="60" value="Fecha Inicio" style="ellipse;whiteSpace=wrap;html=1;aspect=fixed;fontSize=10;strokeColor=#FFFFFF;" parent="1" vertex="1">
                    <mxGeometry x="414" y="-1080" width="42" height="42" as="geometry"/>
                </mxCell>
                <mxCell id="61" value="Fecha TÃ©rmino" style="ellipse;whiteSpace=wrap;html=1;aspect=fixed;fontSize=10;strokeColor=#FFFFFF;" parent="1" vertex="1">
                    <mxGeometry x="441" y="-1032" width="42" height="42" as="geometry"/>
                </mxCell>
                <mxCell id="62" value="Id" style="ellipse;whiteSpace=wrap;html=1;aspect=fixed;fontSize=10;strokeColor=#FFFFFF;" parent="1" vertex="1">
                    <mxGeometry x="280" y="-1032" width="42" height="42" as="geometry"/>
                </mxCell>
                <mxCell id="63" style="edgeStyle=none;html=1;exitX=1;exitY=0.5;exitDx=0;exitDy=0;fontSize=10;strokeColor=#FFFFFF;" parent="1" source="64" target="15" edge="1">
                    <mxGeometry relative="1" as="geometry"/>
                </mxCell>
                <mxCell id="64" value="Para solicitar" style="rhombus;whiteSpace=wrap;html=1;fontSize=10;strokeColor=#FFFFFF;" parent="1" vertex="1">
                    <mxGeometry x="490" y="-965.5" width="63" height="63.5" as="geometry"/>
                </mxCell>
                <mxCell id="65" value="Rut" style="ellipse;whiteSpace=wrap;html=1;aspect=fixed;fontSize=10;fillColor=#76608a;fontColor=#ffffff;strokeColor=#FFFFFF;" parent="1" vertex="1">
                    <mxGeometry x="13" y="-1032" width="42" height="42" as="geometry"/>
                </mxCell>
                <mxCell id="66" value="coautor" style="ellipse;whiteSpace=wrap;html=1;aspect=fixed;fontSize=10;fillColor=#a0522d;fontColor=#ffffff;strokeColor=#FFFFFF;" parent="1" vertex="1">
                    <mxGeometry x="700" y="-1032" width="42" height="42" as="geometry"/>
                </mxCell>
            </root>
        </mxGraphModel>
    </diagram>
</mxfile>